<svg xmlns="http://www.w3.org/2000/svg" viewBox="0 0 40 40" fill="none">
  <path d="M35.1 3L21.7 12.9l2.5-5.9L35.1 3z" fill="#E2761B" stroke="#E2761B" stroke-width=".1"/>
  <path d="M4.9 3l13.2 10 -2.3-6L4.9 3zM30.2 28.3l-3.5 5.4 7.5 2.1 2.2-7.3-6.2-.2zM3.6 28.5l2.1 7.3 7.5-2.1-3.5-5.4-6.1.2z" fill="#E4761B" stroke="#E4761B" stroke-width=".1"/>
  <path d="M12.8 17.4L10.7 20.6l7.4.3-.3-8-5 4.5zM27.2 17.4l-5.1-4.6-.2 8.1 7.4-.3-2.1-3.2zM13.2 33.7l4.5-2.2-3.9-3-.6 5.2zM22.3 31.5l4.5 2.2-.6-5.2-3.9 3z" fill="#E4761B" stroke="#E4761B" stroke-width=".1"/>
  <path d="M26.8 33.7l-4.5-2.2.4 2.9 0 1.2 4.1-1.9zM13.2 33.7l4.1 1.9 0-1.2.3-2.9-4.4 2.2z" fill="#D7C1B3" stroke="#D7C1B3" stroke-width=".1"/>
  <path d="M17.4 26.6l-3.7-1.1 2.6-1.2 1.1 2.3zM22.6 26.6l1.1-2.3 2.6 1.2-3.7 1.1z" fill="#233447" stroke="#233447" stroke-width=".1"/>
  <path d="M13.2 33.7l.6-5.4-4.1.1 3.5 5.3zM26.2 28.3l.6 5.4 3.5-5.3-4.1-.1zM29.3 20.6l-7.4.3.7 3.7 1.1-2.3 2.6 1.2 3-2.9zM13.7 25.5l2.6-1.2 1.1 2.3.7-3.7-7.4-.3 3 2.9z" fill="#CD6116" stroke="#CD6116" stroke-width=".1"/>
  <path d="M10.7 20.6l3.1 6.1-.1-3-3-3.1zM26.3 23.6l-.1 3 3.1-6-3 3zM18.1 20.9l-.7 3.7.9 4.5.2-5.9-.4-2.3zM21.9 20.9l-.3 2.3.1 5.9.9-4.5-.7-3.7z" fill="#E4751F" stroke="#E4751F" stroke-width=".1"/>
  <path d="M22.6 26.6l-.9 4.5.6.5 3.9-3 .1-3-3.7 1zM13.7 25.5l.1 3 3.9 3 .6-.5-.9-4.5-3.7-1z" fill="#F6851B" stroke="#F6851B" stroke-width=".1"/>
  <path d="M22.7 35.6l0-1.2-.3-.3h-4.8l-.3.3 0 1.2-4.1-1.9 1.4 1.2 2.9 2h4.9l2.9-2 1.4-1.2-4-1.9z" fill="#C0AD9E" stroke="#C0AD9E" stroke-width=".1"/>
  <path d="M22.3 31.5l-.6-.5h-3.4l-.6.5-.3 2.9.3-.3h4.8l.3.3-.5-2.9z" fill="#161616" stroke="#161616" stroke-width=".1"/>
  <path d="M35.8 13.5l1.1-5.4-1.7-5.1-13 9.7 5 4.2 7.1 2.1 1.6-1.8-.7-.5 1.1-1-.8-.6 1.1-.8-.7-.6zM3.1 8.1l1.1 5.4-.7.5 1.1.8-.8.6 1.1 1-.7.5 1.6 1.8 7.1-2.1 5-4.2L4.9 3 3.1 8.1z" fill="#763D16" stroke="#763D16" stroke-width=".1"/>
  <path d="M34.3 19l-7.1-2.1 2.1 3.2-3.1 6 4.1-.1h6.2l-2.2-7.1zM12.8 16.9l-7.1 2.1-2.1 7.1h6.1l4.1.1-3.1-6 2.1-3.2zM21.9 20.9l.5-8.2 2-5.6H15.6l2 5.6.5 8.2.1 2.3 0 5.9h3.4l0-5.9.4-2.3z" fill="#F6851B" stroke="#F6851B" stroke-width=".1"/>
</svg>
