<svg xmlns="http://www.w3.org/2000/svg" viewBox="0 0 40 40" fill="none">
  <rect width="40" height="40" rx="8" fill="#3B99FC"/>
  <path d="M12.2 15.6c4.3-4.2 11.3-4.2 15.6 0l.5.5c.2.2.2.6 0 .8l-1.7 1.7c-.1.1-.3.1-.4 0l-.7-.7c-3-2.9-7.9-2.9-10.9 0l-.8.7c-.1.1-.3.1-.4 0l-1.7-1.7c-.2-.2-.2-.6 0-.8l.5-.5zm19.3 3.6l1.5 1.5c.2.2.2.6 0 .8l-6.9 6.7c-.2.2-.6.2-.8 0l-4.9-4.8c-.1 0-.2 0-.2 0l-4.9 4.8c-.2.2-.6.2-.8 0l-6.9-6.7c-.2-.2-.2-.6 0-.8l1.5-1.5c.2-.2.6-.2.8 0l4.9 4.8c.1 0 .2 0 .2 0l4.9-4.8c.2-.2.6-.2.8 0l4.9 4.8c.1 0 .2 0 .2 0l4.9-4.8c.2-.2.6-.2.8 0z" fill="#fff"/>
</svg>
